<?xml version="1.0" encoding="utf-8"?>
<!-- Generator: Adobe Illustrator 26.2.1, SVG Export Plug-In . SVG Version: 6.00 Build 0)  -->
<svg version="1.1" id="Icon" xmlns="http://www.w3.org/2000/svg" xmlns:xlink="http://www.w3.org/1999/xlink" x="0px" y="0px"
	 viewBox="0 0 20 20" style="enable-background:new 0 0 20 20;" xml:space="preserve">
<style type="text/css">
	.st0{fill:none;stroke:#888B8D;stroke-width:0.7843;stroke-linecap:round;}
	.st1{fill:none;stroke:#888B8D;stroke-width:0.7843;}
</style>
<path class="st0" d="M10,17.5c4.1,0,7.5-3.4,7.5-7.5c0-4.1-3.4-7.5-7.5-7.5c-4.1,0-7.5,3.4-7.5,7.5C2.5,14.1,5.9,17.5,10,17.5z"/>
<path class="st0" d="M10,17.5c2.3,0,4.2-3.4,4.2-7.5c0-4.1-1.9-7.5-4.2-7.5c-2.3,0-4.2,3.4-4.2,7.5C5.8,14.1,7.7,17.5,10,17.5z"/>
<path class="st0" d="M10,2.5v15"/>
<path class="st1" d="M2.8,7.7h14.3"/>
<path class="st1" d="M2.8,12.3h14.3"/>
</svg>
