<?xml version="1.0" encoding="utf-8"?>
<!-- Generator: Adobe Illustrator 26.2.1, SVG Export Plug-In . SVG Version: 6.00 Build 0)  -->
<svg version="1.1" id="Icon" xmlns="http://www.w3.org/2000/svg" xmlns:xlink="http://www.w3.org/1999/xlink" x="0px" y="0px"
	 viewBox="0 0 20 20" style="enable-background:new 0 0 20 20;" xml:space="preserve">
<style type="text/css">
	.st0{fill-rule:evenodd;clip-rule:evenodd;fill:#888B8D;}
</style>
<path class="st0" d="M2.6,10c0-4.1,3.3-7.4,7.4-7.4c4.1,0,7.4,3.3,7.4,7.4c0,4.1-3.3,7.4-7.4,7.4C5.9,17.4,2.6,14.1,2.6,10z M10,1.6
	c-4.6,0-8.4,3.8-8.4,8.4c0,4.6,3.8,8.4,8.4,8.4c4.6,0,8.4-3.8,8.4-8.4C18.4,5.4,14.6,1.6,10,1.6z M9.2,6.7C9.2,6.8,9.3,7,9.4,7h1.2
	c0.1,0,0.2-0.1,0.2-0.2V5.3c0-0.1-0.1-0.2-0.2-0.2H9.4C9.3,5,9.2,5.1,9.2,5.3V6.7z M9.2,14.8c0,0.1,0.1,0.2,0.2,0.2h1.1
	c0.1,0,0.2-0.1,0.2-0.2v-6c0-0.1-0.1-0.2-0.2-0.2H9.4c-0.1,0-0.2,0.1-0.2,0.2V14.8z"/>
</svg>
