<?xml version="1.0" encoding="utf-8"?>
<!-- Generator: Adobe Illustrator 26.2.1, SVG Export Plug-In . SVG Version: 6.00 Build 0)  -->
<svg version="1.1" id="Icon" xmlns="http://www.w3.org/2000/svg" xmlns:xlink="http://www.w3.org/1999/xlink" x="0px" y="0px"
	 viewBox="0 0 20 20" style="enable-background:new 0 0 20 20;" xml:space="preserve">
<style type="text/css">
	.st0{fill-rule:evenodd;clip-rule:evenodd;fill:#888B8D;}
</style>
<path class="st0" d="M4.6,7.8C4.6,4.9,7,2.5,10,2.5c3,0,5.4,2.3,5.4,5.3c-0.1,1-0.4,1.9-0.9,2.7l0,0L10.7,17
	c-0.2,0.3-0.5,0.5-0.8,0.5c-0.3,0-0.6-0.2-0.8-0.4l-3.9-6.7l0,0l0,0C4.8,9.7,4.6,8.8,4.6,7.8z M10,1.7c-3.5,0-6.2,2.8-6.2,6.2
	c0,1.1,0.3,2.1,0.8,3l3.9,6.7l0,0l0,0c0.3,0.5,0.8,0.8,1.5,0.8c0.7,0,1.2-0.4,1.5-0.9l0,0l0,0l3.8-6.5l0,0l0,0c0.5-0.9,0.9-2,1-3.1
	l0,0v0C16.2,4.4,13.5,1.7,10,1.7z M7.9,7.9c0-1.2,0.9-2.1,2.1-2.1c1.2,0,2.1,0.9,2.1,2.1S11.2,10,10,10C8.8,10,7.9,9.1,7.9,7.9z
	 M10,5C8.4,5,7.1,6.3,7.1,7.9s1.3,2.9,2.9,2.9c1.6,0,2.9-1.3,2.9-2.9S11.6,5,10,5z"/>
</svg>
