<?xml version="1.0" encoding="utf-8"?>
<!-- Generator: Adobe Illustrator 26.2.1, SVG Export Plug-In . SVG Version: 6.00 Build 0)  -->
<svg version="1.1" id="Icon" xmlns="http://www.w3.org/2000/svg" xmlns:xlink="http://www.w3.org/1999/xlink" x="0px" y="0px"
	 viewBox="0 0 20 20" style="enable-background:new 0 0 20 20;" xml:space="preserve">
<style type="text/css">
	.st0{fill-rule:evenodd;clip-rule:evenodd;fill:#888B8D;}
</style>
<path class="st0" d="M2.9,2.4c-0.3,0-0.5,0.2-0.5,0.5c0,0.3,0.2,0.5,0.5,0.5h1.6c0.2,0,0.5,0.2,0.5,0.4L6.5,13
	c0.1,0.7,0.7,1.3,1.5,1.3h6.6c0.3,0,0.5-0.2,0.5-0.5c0-0.3-0.2-0.5-0.5-0.5H7.9c-0.2,0-0.5-0.2-0.5-0.4l-0.1-0.7h7.2
	c1.2,0,2.3-0.9,2.5-2.1l0.6-3.7c0-0.1,0-0.3-0.1-0.4c-0.1-0.1-0.2-0.2-0.4-0.2H6.4L6,3.7C5.9,3,5.3,2.4,4.6,2.4H2.9z M6.5,6.7
	l0.7,4.4h7.3c0.7,0,1.4-0.5,1.5-1.3l0.5-3.1H6.5z M8.3,15.9c-0.2,0-0.3,0.1-0.3,0.3c0,0.2,0.1,0.3,0.3,0.3c0.2,0,0.3-0.1,0.3-0.3
	C8.7,16.1,8.5,15.9,8.3,15.9z M7,16.2c0-0.7,0.6-1.3,1.3-1.3s1.3,0.6,1.3,1.3c0,0.7-0.6,1.3-1.3,1.3S7,17,7,16.2z M13,16.2
	c0-0.2,0.1-0.3,0.3-0.3c0.2,0,0.3,0.1,0.3,0.3c0,0.2-0.1,0.3-0.3,0.3C13.1,16.6,13,16.4,13,16.2z M13.3,14.9c-0.7,0-1.3,0.6-1.3,1.3
	c0,0.7,0.6,1.3,1.3,1.3c0.7,0,1.3-0.6,1.3-1.3C14.7,15.5,14.1,14.9,13.3,14.9z"/>
</svg>
